<?xml version="1.0" encoding="UTF-8"?>
<!-- Created with Inkscape (http://www.inkscape.org/) -->
<svg version="1.1" viewBox="0 0 9.102 9.3154" xmlns="http://www.w3.org/2000/svg" xmlns:cc="http://creativecommons.org/ns#" xmlns:dc="http://purl.org/dc/elements/1.1/" xmlns:rdf="http://www.w3.org/1999/02/22-rdf-syntax-ns#">
 <metadata>
  <rdf:RDF>
   <cc:Work rdf:about="">
    <dc:format>image/svg+xml</dc:format>
    <dc:type rdf:resource="http://purl.org/dc/dcmitype/StillImage"/>
    <dc:title/>
   </cc:Work>
  </rdf:RDF>
 </metadata>
 <g transform="translate(-22.965 -21.563)">
  <path transform="matrix(.26458 0 0 .26458 23.219 21.817)" d="m5.5215 0c-1.5575 0.0088084-3.0957 0.67815-4.1836 1.9551-0.025584 0.029793-0.05317 0.057549-0.078125 0.087891-0.00118 0.00144-0.00273 0.00247-0.00391 0.00391-0.028927 0.035487-0.05217 0.073409-0.080078 0.10938-0.08174 0.10469-0.16411 0.20973-0.23828 0.32031-0.051606 0.077203-0.095308 0.15741-0.14258 0.23633-0.048693 0.081056-0.099936 0.16043-0.14453 0.24414-0.02719 0.051137-0.048765 0.10454-0.074219 0.15625-0.058649 0.11892-0.11777 0.23773-0.16797 0.36133-0.008093 0.019948-0.013636 0.040534-0.021484 0.060547-0.057999 0.14773-0.11085 0.29749-0.15625 0.45117-0.006681 0.022647-0.011196 0.045654-0.017578 0.068359-0.04218 0.14979-0.081647 0.30036-0.11133 0.45508-0.0059544 0.031111-0.0082596 0.062574-0.013672 0.09375-0.025558 0.14663-0.046672 0.29488-0.060547 0.44531-0.015793 0.17122-0.027344 0.34405-0.027344 0.51953v22.176c0 3.0714 2.4735 5.5449 5.5449 5.5449 3.0714 0 5.543-2.4735 5.543-5.5449v-10.531l1.6465 1.3418c0.56515 0.46068 1.1921 0.78852 1.8457 0.99414 0.02096 0.0066 0.04147 0.01513 0.0625 0.02148 0.16445 0.04957 0.33094 0.09119 0.49805 0.125 0.0059 0.0012 0.01169 0.0027 0.01758 0.0039h2e-3c0.13222 0.02626 0.26521 0.04408 0.39844 0.06055 0.04765 6e-3 0.09479 0.01482 0.14258 0.01953 0.10683 0.01039 0.21328 0.01342 0.32031 0.01758 0.07354 3e-3 0.14706 0.0078 0.2207 0.0078 0.07173-7.7e-5 0.14322-5e-3 0.21484-0.0078 0.10928-0.0042 0.21906-0.0069 0.32812-0.01758 0.03925-0.0039 0.07803-0.01089 0.11719-0.01563 1.0092-0.12031 1.9983-0.51661 2.8477-1.209l1.6445-1.3398v10.529c0 3.0714 2.4735 5.5449 5.5449 5.5449s5.543-2.4735 5.543-5.5449v-22.176c0-0.35879-0.03511-0.70936-0.09961-1.0488-4.98e-4 -0.00263-0.0015-0.00519-2e-3 -0.00781-0.02359-0.12322-0.05438-0.24316-0.08594-0.36328-0.01587-0.060519-0.0289-0.12152-0.04687-0.18164-0.04922-0.16441-0.1063-0.3249-0.16992-0.48242-0.0013-0.00322-0.0026-0.00655-0.0039-0.00977-0.06813-0.16778-0.14297-0.33121-0.22656-0.49023-2e-3 -0.00383-0.0038-0.00789-0.0059-0.011719-0.06749-0.12766-0.14378-0.24964-0.2207-0.37109-0.02316-0.036703-0.04229-0.075012-0.06641-0.11133-0.10182-0.15278-0.21-0.30186-0.32614-0.44336-0.042578-0.052233-0.090735-0.098158-0.13477-0.14844-0.075776-0.085786-0.14956-0.173-0.23047-0.25391-1.9885-2.0116-5.1964-2.2178-7.4355-0.39258l-7.1855 5.8574-7.1855-5.8574c-1.0416-0.84902-2.294-1.259-3.5352-1.252z" fill="#fff" style="paint-order:normal"/>
 </g>
</svg>
